<?xml version="1.0" encoding="UTF-8"?>
<svg xmlns="http://www.w3.org/2000/svg" xmlns:xlink="http://www.w3.org/1999/xlink" width="47pt" height="31pt" viewBox="0 0 47 31" version="1.1">
<g id="surface1">
<path style=" stroke:none;fill-rule:nonzero;fill:rgb(0%,0%,0%);fill-opacity:1;" d="M 23.355469 0.273438 C 22.734375 1.316406 21.839844 2.917969 21.191406 4.160156 C 20.8125 4.878906 20.351562 5.933594 20.03125 6.820312 L 19.820312 7.40625 L 19.484375 7.113281 C 18.066406 5.882812 16.1875 4.75 14.472656 4.089844 C 14.261719 4.007812 14.082031 3.949219 14.078125 3.957031 C 14.070312 3.960938 14.042969 4.210938 14.007812 4.503906 C 13.921875 5.246094 13.894531 7.199219 13.953125 7.917969 C 13.992188 8.433594 14.140625 9.441406 14.199219 9.589844 C 14.21875 9.636719 14.210938 9.648438 14.167969 9.628906 C 13.691406 9.417969 12.976562 9.125 12.574219 8.972656 C 11.464844 8.550781 9.398438 7.878906 8.125 7.527344 L 7.859375 7.453125 L 7.824219 7.585938 C 7.75 7.867188 7.703125 8.433594 7.730469 8.742188 C 7.777344 9.3125 7.980469 9.867188 8.265625 10.207031 C 8.386719 10.355469 8.464844 10.398438 8.949219 10.589844 C 9.96875 11.003906 10.921875 11.527344 11.351562 11.90625 C 11.445312 11.992188 11.535156 12.058594 11.542969 12.058594 C 11.570312 12.058594 11.332031 11.398438 11.164062 11.007812 C 11.085938 10.828125 11.039062 10.683594 11.054688 10.683594 C 11.113281 10.683594 12.503906 11.214844 13.089844 11.464844 C 15.421875 12.445312 17.394531 13.46875 19.164062 14.621094 C 19.621094 14.917969 19.769531 15 19.792969 14.960938 C 19.808594 14.933594 19.851562 14.796875 19.878906 14.65625 C 20.039062 13.949219 20.792969 12.140625 21.445312 10.917969 C 22.15625 9.578125 23.238281 7.644531 23.480469 7.285156 C 23.527344 7.226562 23.554688 7.257812 23.769531 7.621094 C 24.414062 8.71875 25.898438 11.425781 26.132812 11.949219 C 26.511719 12.78125 27.03125 14.136719 27.207031 14.742188 C 27.253906 14.894531 27.292969 15.023438 27.300781 15.03125 C 27.304688 15.039062 27.546875 14.886719 27.835938 14.691406 C 29.75 13.429688 31.890625 12.339844 34.230469 11.429688 C 35.003906 11.132812 36.207031 10.714844 36.230469 10.734375 C 36.238281 10.742188 36.140625 10.953125 36.015625 11.207031 C 35.699219 11.851562 35.359375 12.582031 35.382812 12.582031 C 35.390625 12.582031 35.464844 12.519531 35.554688 12.441406 C 36.042969 11.984375 36.996094 11.398438 38.167969 10.832031 C 38.785156 10.53125 38.878906 10.460938 39.136719 10.082031 C 39.320312 9.804688 39.578125 9.253906 39.710938 8.84375 C 39.835938 8.457031 39.988281 7.753906 39.988281 7.558594 L 39.988281 7.453125 L 39.574219 7.5625 C 36.816406 8.296875 34.175781 9.109375 33.300781 9.488281 C 33.113281 9.570312 32.953125 9.632812 32.945312 9.621094 C 32.9375 9.613281 32.953125 9.496094 32.984375 9.355469 C 33.253906 8.140625 33.304688 6.238281 33.121094 4.46875 C 33.097656 4.273438 33.074219 4.074219 33.066406 4.03125 L 33.046875 3.949219 L 32.753906 4.058594 C 30.996094 4.710938 29.039062 5.890625 27.621094 7.144531 C 27.285156 7.4375 27.207031 7.484375 27.207031 7.40625 C 27.207031 7.242188 26.449219 5.34375 26.101562 4.644531 C 25.671875 3.765625 24.117188 0.957031 23.699219 0.289062 L 23.515625 0.00390625 Z M 23.355469 0.273438 "/>
<path style=" stroke:none;fill-rule:nonzero;fill:rgb(0%,0%,0%);fill-opacity:1;" d="M 23.140625 10.46875 C 22.3125 11.871094 21.199219 13.953125 20.894531 14.648438 C 19.371094 18.125 18.953125 20.910156 19.628906 23.058594 C 19.753906 23.464844 20.109375 24.195312 20.332031 24.511719 C 21.019531 25.488281 22.03125 26.242188 23.203125 26.65625 L 23.542969 26.773438 L 23.808594 26.691406 C 24.222656 26.554688 24.875 26.226562 25.316406 25.929688 C 27.96875 24.132812 28.488281 20.726562 26.816406 16.15625 C 26.535156 15.394531 26.214844 14.617188 25.976562 14.132812 C 25.511719 13.199219 23.722656 10 23.554688 9.796875 C 23.546875 9.789062 23.363281 10.089844 23.140625 10.46875 Z M 23.140625 10.46875 "/>
<path style=" stroke:none;fill-rule:nonzero;fill:rgb(0%,0%,0%);fill-opacity:1;" d="M 0.0351562 10.449219 C 0.0351562 10.453125 0.15625 10.550781 0.308594 10.664062 C 1.347656 11.457031 2.25 13.09375 2.753906 15.113281 C 2.957031 15.917969 3.1875 16.527344 3.625 17.394531 C 4.171875 18.476562 4.824219 19.382812 5.6875 20.25 C 6.769531 21.335938 8.03125 22.183594 9.496094 22.816406 C 10.613281 23.289062 11.894531 23.648438 12.933594 23.769531 L 13.136719 23.792969 L 12.707031 23.355469 C 11.550781 22.171875 10.914062 20.558594 10.644531 18.164062 C 10.585938 17.675781 10.582031 15.691406 10.636719 15.171875 L 10.671875 14.839844 L 10.539062 14.667969 C 10.3125 14.386719 9.625 13.734375 9.234375 13.4375 C 7.585938 12.191406 5.28125 11.269531 2.5 10.757812 C 1.734375 10.617188 0.0351562 10.398438 0.0351562 10.449219 Z M 0.0351562 10.449219 "/>
<path style=" stroke:none;fill-rule:nonzero;fill:rgb(0%,0%,0%);fill-opacity:1;" d="M 46.136719 10.5 C 43.628906 10.785156 41.144531 11.480469 39.351562 12.402344 C 38.292969 12.949219 37.527344 13.503906 36.761719 14.28125 C 36.242188 14.8125 36.234375 14.820312 36.257812 14.957031 C 36.300781 15.230469 36.351562 16.148438 36.351562 16.675781 C 36.351562 18.121094 36.148438 19.515625 35.765625 20.695312 C 35.40625 21.804688 34.929688 22.621094 34.21875 23.355469 L 33.789062 23.792969 L 33.996094 23.769531 C 35.28125 23.617188 36.917969 23.113281 38.179688 22.46875 C 40.480469 21.300781 42.242188 19.542969 43.339844 17.328125 C 43.742188 16.511719 43.96875 15.925781 44.15625 15.1875 C 44.523438 13.785156 44.957031 12.726562 45.546875 11.839844 C 45.828125 11.410156 46.390625 10.804688 46.707031 10.59375 L 46.90625 10.460938 L 46.667969 10.464844 C 46.539062 10.46875 46.296875 10.484375 46.136719 10.5 Z M 46.136719 10.5 "/>
<path style=" stroke:none;fill-rule:nonzero;fill:rgb(0%,0%,0%);fill-opacity:1;" d="M 11.398438 13.519531 C 11.722656 13.984375 11.769531 14.425781 11.675781 16.285156 C 11.558594 18.554688 11.789062 20.109375 12.472656 21.699219 C 13.597656 24.320312 15.382812 25.746094 17.832031 25.984375 C 18.277344 26.027344 18.921875 26.011719 19.351562 25.945312 C 19.722656 25.886719 20.160156 25.789062 20.15625 25.761719 C 20.15625 25.75 20.058594 25.660156 19.941406 25.566406 C 19.53125 25.230469 19.058594 24.550781 18.78125 23.898438 C 18.246094 22.632812 18.042969 20.648438 18.265625 18.816406 C 18.34375 18.179688 18.34375 18.105469 18.238281 17.835938 C 17.9375 17.085938 17.117188 16.261719 15.898438 15.488281 C 14.960938 14.894531 13.273438 14.113281 11.882812 13.628906 C 11.386719 13.453125 11.34375 13.445312 11.398438 13.519531 Z M 11.398438 13.519531 "/>
<path style=" stroke:none;fill-rule:nonzero;fill:rgb(0%,0%,0%);fill-opacity:1;" d="M 34.863281 13.695312 C 32.453125 14.5625 30.570312 15.609375 29.519531 16.671875 C 29.144531 17.054688 28.921875 17.359375 28.746094 17.730469 C 28.59375 18.0625 28.585938 18.148438 28.664062 18.753906 C 28.757812 19.511719 28.761719 21.292969 28.667969 21.945312 C 28.429688 23.539062 27.898438 24.722656 27.058594 25.511719 C 26.910156 25.652344 26.800781 25.769531 26.8125 25.777344 C 26.859375 25.824219 27.578125 25.949219 28.042969 25.988281 C 29.761719 26.132812 31.382812 25.582031 32.636719 24.433594 C 33.75 23.410156 34.707031 21.566406 35.082031 19.722656 C 35.292969 18.667969 35.316406 18.015625 35.226562 15.238281 C 35.210938 14.757812 35.21875 14.445312 35.246094 14.273438 C 35.292969 14.007812 35.429688 13.65625 35.53125 13.542969 C 35.566406 13.503906 35.585938 13.46875 35.578125 13.460938 C 35.570312 13.453125 35.25 13.558594 34.863281 13.695312 Z M 34.863281 13.695312 "/>
<path style=" stroke:none;fill-rule:nonzero;fill:rgb(0%,0%,0%);fill-opacity:1;" d="M 3.101562 20.085938 C 2.3125 20.207031 1.527344 20.425781 1.003906 20.664062 C 0.710938 20.792969 0.316406 21.058594 0.167969 21.214844 L 0.0585938 21.328125 L 0.1875 21.464844 C 0.699219 22.007812 1.710938 22.609375 2.726562 22.976562 C 2.785156 23 2.742188 23.046875 2.507812 23.210938 C 2.351562 23.328125 2.109375 23.515625 1.972656 23.628906 C 1.710938 23.84375 0.953125 24.632812 0.953125 24.6875 C 0.953125 24.707031 1.042969 24.707031 1.148438 24.691406 C 1.464844 24.640625 2.578125 24.664062 3.285156 24.734375 C 3.648438 24.769531 3.953125 24.804688 3.960938 24.8125 C 3.96875 24.820312 3.855469 24.957031 3.703125 25.113281 C 3.257812 25.589844 2.714844 26.261719 2.558594 26.53125 C 2.488281 26.648438 4.277344 27.035156 5.367188 27.140625 C 6.046875 27.203125 7.488281 27.164062 8.109375 27.066406 C 8.675781 26.976562 9.246094 26.847656 9.71875 26.691406 C 9.902344 26.625 10.066406 26.578125 10.078125 26.578125 C 10.121094 26.578125 9.355469 27.472656 9.242188 27.558594 C 8.964844 27.773438 8.414062 27.996094 7.820312 28.140625 C 7.628906 28.1875 7.457031 28.238281 7.441406 28.253906 C 7.371094 28.320312 8.695312 28.648438 9.601562 28.789062 C 10.527344 28.933594 11.101562 28.976562 12.265625 28.976562 C 13.9375 28.976562 15.328125 28.824219 17.199219 28.4375 C 17.503906 28.378906 17.761719 28.339844 17.773438 28.351562 C 17.785156 28.371094 17.882812 28.496094 17.988281 28.632812 C 18.425781 29.207031 19.246094 29.875 19.933594 30.222656 C 20.5625 30.542969 21.324219 30.789062 22.085938 30.921875 C 22.550781 31 23.910156 31.011719 24.398438 30.941406 C 26.027344 30.703125 27.347656 30.097656 28.363281 29.140625 C 28.527344 28.984375 28.769531 28.722656 28.894531 28.558594 C 29.023438 28.394531 29.144531 28.265625 29.167969 28.273438 C 29.300781 28.316406 30.144531 28.488281 30.695312 28.585938 C 32.175781 28.84375 33.441406 28.960938 34.847656 28.960938 C 36.234375 28.960938 37.339844 28.851562 38.425781 28.605469 C 38.941406 28.492188 39.621094 28.289062 39.621094 28.253906 C 39.621094 28.238281 39.519531 28.203125 39.398438 28.183594 C 38.878906 28.078125 38.179688 27.816406 37.878906 27.617188 C 37.726562 27.511719 36.953125 26.625 36.988281 26.59375 C 36.992188 26.585938 37.121094 26.617188 37.269531 26.671875 C 38.1875 26.988281 39.097656 27.136719 40.289062 27.164062 C 41.289062 27.183594 41.800781 27.152344 42.703125 27.003906 C 43.273438 26.90625 44.417969 26.632812 44.480469 26.578125 C 44.539062 26.519531 43.949219 25.757812 43.367188 25.15625 C 43.199219 24.972656 43.0625 24.820312 43.074219 24.8125 C 43.082031 24.804688 43.386719 24.769531 43.75 24.734375 C 44.472656 24.664062 45.480469 24.644531 45.875 24.691406 L 46.128906 24.71875 L 45.96875 24.523438 C 45.582031 24.054688 45 23.527344 44.488281 23.179688 C 44.328125 23.070312 44.253906 23 44.285156 22.988281 C 45.238281 22.652344 46.054688 22.183594 46.722656 21.605469 L 47.011719 21.351562 L 46.804688 21.15625 C 46.445312 20.820312 45.914062 20.558594 45.128906 20.339844 C 44.617188 20.199219 43.988281 20.078125 43.558594 20.042969 L 43.273438 20.019531 L 43.1875 20.179688 C 42.894531 20.757812 41.675781 22.035156 40.671875 22.828125 C 39.671875 23.621094 38.9375 24.011719 37.792969 24.363281 C 36.691406 24.703125 35.183594 24.875 34.4375 24.746094 C 34.191406 24.703125 34.179688 24.707031 34.136719 24.773438 C 34.054688 24.925781 33.605469 25.367188 33.265625 25.625 C 32.039062 26.5625 30.671875 27.132812 29.007812 27.402344 C 28.375 27.5 27.148438 27.539062 26.90625 27.460938 L 26.734375 27.402344 L 26.640625 27.566406 C 26.414062 27.957031 25.746094 28.273438 24.8125 28.4375 C 24.332031 28.519531 23.582031 28.589844 23.371094 28.570312 C 23.289062 28.558594 23.027344 28.53125 22.785156 28.507812 C 21.589844 28.402344 20.476562 28.074219 20.046875 27.707031 L 19.925781 27.601562 L 19.226562 27.597656 C 17.78125 27.582031 16.507812 27.296875 15.332031 26.710938 C 14.355469 26.226562 13.355469 25.441406 12.976562 24.871094 L 12.875 24.710938 L 12.667969 24.738281 C 12.386719 24.785156 11.359375 24.773438 10.941406 24.71875 C 10.75 24.699219 10.386719 24.632812 10.132812 24.582031 C 8.15625 24.179688 6.824219 23.410156 5.117188 21.683594 C 4.4375 20.996094 4.074219 20.570312 3.886719 20.222656 C 3.773438 20.03125 3.773438 20.027344 3.605469 20.03125 C 3.511719 20.035156 3.285156 20.054688 3.101562 20.085938 Z M 3.101562 20.085938 "/>
</g>
</svg>
