<?xml version="1.0" encoding="UTF-8"?>
<svg xmlns="http://www.w3.org/2000/svg" xmlns:xlink="http://www.w3.org/1999/xlink" width="40pt" height="34pt" viewBox="0 0 40 34" version="1.1">
<g id="surface1">
<path style=" stroke:none;fill-rule:nonzero;fill:rgb(0%,0%,0%);fill-opacity:1;" d="M 19.34375 2.15625 C 19.0625 2.773438 18.644531 3.710938 18.40625 4.230469 L 17.96875 5.1875 L 18.605469 5.566406 C 18.964844 5.785156 19.402344 6.144531 19.601562 6.363281 C 19.980469 6.765625 19.980469 6.765625 20.339844 6.304688 C 20.539062 6.046875 20.976562 5.726562 21.316406 5.585938 C 21.734375 5.40625 21.890625 5.226562 21.8125 5.027344 C 21.414062 3.949219 20.019531 0.996094 19.941406 0.996094 C 19.878906 0.996094 19.601562 1.515625 19.34375 2.15625 Z M 19.34375 2.15625 "/>
<path style=" stroke:none;fill-rule:nonzero;fill:rgb(0%,0%,0%);fill-opacity:1;" d="M 13.804688 6.644531 C 13.167969 7.242188 11.992188 8.0625 11.195312 8.460938 C 9.542969 9.296875 9.105469 9.9375 9.082031 11.613281 C 9.082031 13.667969 10.636719 14.84375 14.421875 15.625 L 16.554688 16.0625 L 17.070312 15.382812 C 17.351562 15.023438 17.96875 14.566406 18.445312 14.367188 C 19.261719 14.007812 19.304688 13.96875 19.460938 12.828125 C 19.742188 10.816406 19.640625 8.359375 19.222656 7.523438 C 18.664062 6.324219 17.75 5.765625 16.253906 5.648438 L 14.960938 5.527344 Z M 13.804688 6.644531 "/>
<path style=" stroke:none;fill-rule:nonzero;fill:rgb(0%,0%,0%);fill-opacity:1;" d="M 22.113281 5.964844 C 21.734375 6.164062 21.15625 6.742188 20.835938 7.261719 C 20.320312 8.082031 20.257812 8.398438 20.238281 9.738281 C 20.238281 10.574219 20.296875 11.890625 20.398438 12.628906 C 20.558594 13.96875 20.578125 14.007812 21.273438 14.304688 C 21.691406 14.464844 22.332031 14.925781 22.730469 15.304688 C 23.40625 15.960938 23.527344 16.003906 24.324219 15.863281 C 25.9375 15.625 28.1875 14.945312 29.023438 14.445312 C 30.140625 13.789062 30.675781 12.890625 30.675781 11.59375 C 30.675781 9.855469 30.320312 9.296875 28.644531 8.460938 C 27.847656 8.0625 26.671875 7.242188 26.054688 6.664062 C 24.980469 5.648438 24.878906 5.585938 23.863281 5.585938 C 23.207031 5.585938 22.53125 5.726562 22.113281 5.964844 Z M 22.113281 5.964844 "/>
<path style=" stroke:none;fill-rule:nonzero;fill:rgb(0%,0%,0%);fill-opacity:1;" d="M 5.121094 12.390625 C 4.363281 12.46875 3.707031 12.589844 3.664062 12.628906 C 3.605469 12.691406 4.363281 13.386719 5.320312 14.207031 L 7.070312 15.683594 L 8.109375 14.984375 L 9.144531 14.304688 L 8.746094 13.546875 C 8.546875 13.128906 8.367188 12.648438 8.367188 12.46875 C 8.367188 12.132812 7.488281 12.113281 5.121094 12.390625 Z M 5.121094 12.390625 "/>
<path style=" stroke:none;fill-rule:nonzero;fill:rgb(0%,0%,0%);fill-opacity:1;" d="M 31.472656 12.511719 C 31.472656 12.710938 31.292969 13.230469 31.074219 13.667969 C 30.597656 14.585938 30.617188 14.566406 30.9375 14.566406 C 31.074219 14.566406 31.554688 14.824219 31.992188 15.164062 L 32.808594 15.742188 L 36.433594 12.671875 L 35.597656 12.550781 C 35.140625 12.46875 34.023438 12.351562 33.128906 12.269531 C 31.59375 12.132812 31.472656 12.152344 31.472656 12.511719 Z M 31.472656 12.511719 "/>
<path style=" stroke:none;fill-rule:nonzero;fill:rgb(0%,0%,0%);fill-opacity:1;" d="M 9.0625 15.464844 C 8.027344 15.824219 7.050781 16.898438 6.753906 17.996094 C 6.535156 18.816406 6.554688 18.914062 7.230469 20.191406 C 7.6875 21.03125 8.027344 22.007812 8.167969 22.886719 C 8.40625 24.441406 8.785156 25.0625 9.878906 25.679688 C 10.796875 26.21875 11.871094 26.257812 12.910156 25.839844 C 14.125 25.320312 14.980469 24.34375 16.453125 21.730469 L 17.132812 20.511719 L 16.632812 19.671875 C 16.355469 19.175781 16.136719 18.515625 16.136719 18.078125 C 16.136719 17.199219 15.65625 16.859375 13.246094 15.980469 C 11.15625 15.242188 10.078125 15.105469 9.0625 15.464844 Z M 9.0625 15.464844 "/>
<path style=" stroke:none;fill-rule:nonzero;fill:rgb(0%,0%,0%);fill-opacity:1;" d="M 18.527344 15.601562 C 17.089844 16.5625 16.792969 18.277344 17.847656 19.535156 C 19.203125 21.171875 21.914062 20.613281 22.53125 18.578125 C 23.207031 16.28125 20.496094 14.265625 18.527344 15.601562 Z M 18.527344 15.601562 "/>
<path style=" stroke:none;fill-rule:nonzero;fill:rgb(0%,0%,0%);fill-opacity:1;" d="M 28.882812 15.285156 C 28.027344 15.445312 26.035156 16.160156 24.902344 16.71875 C 23.84375 17.238281 23.804688 17.300781 23.746094 18.136719 C 23.707031 18.65625 23.484375 19.316406 23.207031 19.714844 L 22.730469 20.433594 L 23.464844 21.789062 C 25.476562 25.558594 27.628906 26.898438 29.839844 25.757812 C 31.054688 25.140625 31.433594 24.582031 31.671875 23.085938 C 31.792969 22.308594 32.191406 21.109375 32.609375 20.253906 C 33.285156 18.894531 33.328125 18.734375 33.109375 18.019531 C 32.488281 15.980469 30.855469 14.925781 28.882812 15.285156 Z M 28.882812 15.285156 "/>
<path style=" stroke:none;fill-rule:nonzero;fill:rgb(0%,0%,0%);fill-opacity:1;" d="M 16.890625 22.527344 C 15.140625 24.441406 14.480469 25.621094 14.382812 26.917969 C 14.28125 28.332031 14.640625 29.113281 15.777344 29.929688 C 16.671875 30.589844 17.171875 30.648438 18.726562 30.308594 C 19.503906 30.148438 20.140625 30.148438 21.316406 30.347656 C 23.148438 30.648438 23.765625 30.46875 24.703125 29.410156 C 26.273438 27.59375 25.796875 25.578125 23.066406 22.648438 L 21.953125 21.449219 L 19.921875 21.429688 L 17.910156 21.410156 Z M 16.890625 22.527344 "/>
<path style=" stroke:none;fill-rule:nonzero;fill:rgb(0%,0%,0%);fill-opacity:1;" d="M 12.011719 26.898438 C 10.917969 26.957031 10.757812 27.015625 10.65625 27.394531 C 10.058594 30.03125 9.761719 31.367188 9.761719 31.445312 C 9.761719 31.546875 11.914062 30.386719 13.207031 29.589844 C 13.863281 29.191406 13.925781 29.070312 13.746094 28.710938 C 13.625 28.492188 13.464844 27.972656 13.386719 27.574219 L 13.246094 26.835938 Z M 12.011719 26.898438 "/>
<path style=" stroke:none;fill-rule:nonzero;fill:rgb(0%,0%,0%);fill-opacity:1;" d="M 26.375 27.773438 C 26.253906 28.253906 26.09375 28.773438 26.035156 28.933594 C 25.9375 29.152344 26.414062 29.53125 27.929688 30.367188 C 29.0625 30.988281 30 31.464844 30.019531 31.445312 C 30.078125 31.386719 29.878906 30.46875 29.183594 27.375 C 29.082031 26.976562 28.964844 26.9375 27.828125 26.9375 L 26.59375 26.9375 Z M 26.375 27.773438 "/>
</g>
</svg>
